<svg width="20" height="11" viewBox="0 0 20 11" fill="none" xmlns="http://www.w3.org/2000/svg">
<path d="M7.78501 10.6517L6.17584 10.22L6.83168 7.77083C5.84998 7.40877 4.93761 6.88113 4.13418 6.21083L2.34001 8.00583L1.16084 6.82666L2.95584 5.0325C1.94257 3.81896 1.26175 2.36313 0.980011 0.807498L2.62001 0.508331C3.25251 4.01 6.31584 6.66666 10 6.66666C13.6833 6.66666 16.7475 4.01 17.38 0.508331L19.02 0.806664C18.7386 2.36251 18.0581 3.81864 17.045 5.0325L18.8392 6.82666L17.66 8.00583L15.8658 6.21083C15.0624 6.88113 14.15 7.40877 13.1683 7.77083L13.8242 10.2208L12.215 10.6517L11.5583 8.20166C10.527 8.3784 9.47305 8.3784 8.44168 8.20166L7.78501 10.6517Z" fill="#444749"/>
</svg>
