<svg width="116" height="116" viewBox="0 0 116 116" fill="none" xmlns="http://www.w3.org/2000/svg">
<rect width="116" height="116" rx="58" fill="#F1E6E3"/>
<path fill-rule="evenodd" clip-rule="evenodd" d="M49 52.1687H52.2812L54.3937 49H60.7312L62.8438 52.1687H66.125H68.125V54.1687V64.4446V66.4446H66.125H49H47V64.4446V54.1687V52.1687H49ZM53.9454 53.2781L55.4641 51H59.6609L61.1796 53.2781L61.7734 54.1687H62.8438H66.125V64.4446H49V54.1687H52.2812H53.3516L53.9454 53.2781ZM55 58.725C55 57.22 56.22 56 57.725 56C59.23 56 60.45 57.22 60.45 58.725C60.45 60.23 59.23 61.45 57.725 61.45C56.22 61.45 55 60.23 55 58.725ZM57.725 54C55.1155 54 53 56.1154 53 58.725C53 61.3345 55.1155 63.45 57.725 63.45C60.3345 63.45 62.45 61.3345 62.45 58.725C62.45 56.1154 60.3345 54 57.725 54Z" fill="#DA5E42"/>
</svg>
